<?xml version="1.0" encoding="iso-8859-1"?>
<!-- Generator: Adobe Illustrator 16.0.0, SVG Export Plug-In . SVG Version: 6.00 Build 0)  -->
<!DOCTYPE svg PUBLIC "-//W3C//DTD SVG 1.1//EN" "http://www.w3.org/Graphics/SVG/1.1/DTD/svg11.dtd">
<svg version="1.1" id="Capa_1" xmlns="http://www.w3.org/2000/svg" xmlns:xlink="http://www.w3.org/1999/xlink" x="0px" y="0px"
	 width="404.693px" height="404.693px" viewBox="0 0 404.693 404.693" style="enable-background:new 0 0 404.693 404.693;"
	 xml:space="preserve">
<g>
	<g>
		<path d="M202.346,0C90.778,0,0,90.77,0,202.346c0,111.578,90.777,202.348,202.346,202.348
			c111.578,0,202.347-90.77,202.347-202.348C404.693,90.77,313.924,0,202.346,0z M202.346,377.021
			c-96.314,0-174.674-78.358-174.674-174.676c0-96.313,78.359-174.673,174.674-174.673c96.316,0,174.675,78.359,174.675,174.673
			C377.021,298.662,298.662,377.021,202.346,377.021z"/>
		<path d="M127.811,158.887c22.193,0,40.25-18.059,40.25-40.258c0-22.197-18.057-40.256-40.25-40.256
			c-22.199,0-40.256,18.059-40.256,40.256C87.555,140.828,105.612,158.887,127.811,158.887z M127.811,106.045
			c6.939,0,12.58,5.646,12.58,12.584c0,6.939-5.641,12.586-12.58,12.586c-6.938,0-12.586-5.646-12.586-12.586
			C115.225,111.692,120.873,106.045,127.811,106.045z"/>
		<path d="M276.889,78.373c-22.199,0-40.258,18.059-40.258,40.256c0,22.199,18.059,40.258,40.258,40.258
			c22.193,0,40.25-18.059,40.25-40.258C317.139,96.432,299.082,78.373,276.889,78.373z M276.889,131.215
			c-6.938,0-12.586-5.646-12.586-12.586c0-6.938,5.648-12.584,12.586-12.584c6.939,0,12.58,5.646,12.58,12.584
			C289.469,125.569,283.826,131.215,276.889,131.215z"/>
		<path d="M202.346,175.627c-63.293,0-114.791,51.5-114.791,114.792c0,7.641,6.193,13.836,13.836,13.836
			c7.641,0,13.834-6.195,13.834-13.836c0-48.039,39.082-87.121,87.121-87.121c48.041,0,87.123,39.082,87.123,87.121
			c0,7.641,6.193,13.836,13.834,13.836s13.836-6.195,13.836-13.836C317.139,227.127,265.641,175.627,202.346,175.627z"/>
	</g>
</g>
<g>
</g>
<g>
</g>
<g>
</g>
<g>
</g>
<g>
</g>
<g>
</g>
<g>
</g>
<g>
</g>
<g>
</g>
<g>
</g>
<g>
</g>
<g>
</g>
<g>
</g>
<g>
</g>
<g>
</g>
</svg>
